<?xml version="1.0" encoding="UTF-8"?>
<svg xmlns="http://www.w3.org/2000/svg" xmlns:xlink="http://www.w3.org/1999/xlink" width="40pt" height="40pt" viewBox="0 0 40 40" version="1.1">
<g id="surface1">
<path style=" stroke:none;fill-rule:evenodd;fill:rgb(93.72549%,93.72549%,93.72549%);fill-opacity:1;" d="M 0.425781 9.246094 C 0.425781 6.292969 2.824219 3.898438 5.777344 3.898438 L 34.226562 3.898438 C 35.644531 3.898438 37.003906 4.460938 38.007812 5.464844 C 39.011719 6.46875 39.574219 7.828125 39.574219 9.246094 L 39.574219 30.644531 C 39.574219 33.601562 37.179688 35.996094 34.226562 35.996094 L 5.777344 35.996094 C 2.824219 35.996094 0.425781 33.601562 0.425781 30.644531 Z M 0.425781 9.246094 "/>
<path style="fill:none;stroke-width:24;stroke-linecap:butt;stroke-linejoin:round;stroke:rgb(96.078431%,50.980392%,11.764706%);stroke-opacity:1;stroke-miterlimit:10;" d="M 367.125 307.125 C 367.125 323.8875 353.55 337.4625 336.7875 337.4625 L 221.7375 337.4625 C 204.975 337.4625 191.4 351.0375 191.4 367.8 C 191.4 351.0375 177.825 337.4625 161.0625 337.4625 L 46.0125 337.4625 C 29.25 337.4625 15.675 323.8875 15.675 307.125 " transform="matrix(0.104167,0,0,0.104167,0,0)"/>
<path style=" stroke:none;fill-rule:nonzero;fill:rgb(26.27451%,26.27451%,26.27451%);fill-opacity:1;" d="M 4.035156 26.945312 L 4.035156 24.804688 L 7.730469 24.804688 L 7.730469 14.910156 L 4.015625 17.671875 L 4.015625 15.105469 L 7.28125 12.75 L 10.160156 12.75 L 10.160156 24.804688 L 13.132812 24.804688 L 13.132812 26.945312 Z M 15.605469 26.945312 L 15.605469 24.59375 L 20.035156 20.140625 C 20.660156 19.503906 21.121094 18.929688 21.417969 18.417969 C 21.714844 17.90625 21.863281 17.378906 21.863281 16.832031 C 21.863281 16.171875 21.683594 15.65625 21.320312 15.289062 C 20.957031 14.917969 20.464844 14.734375 19.84375 14.734375 C 19.15625 14.734375 18.617188 14.933594 18.226562 15.328125 C 17.839844 15.722656 17.644531 16.269531 17.644531 16.96875 L 15.214844 16.96875 C 15.226562 16.0625 15.425781 15.28125 15.808594 14.625 C 16.191406 13.972656 16.730469 13.464844 17.433594 13.101562 C 18.132812 12.738281 18.949219 12.554688 19.882812 12.554688 C 20.777344 12.554688 21.554688 12.726562 22.214844 13.0625 C 22.875 13.398438 23.386719 13.871094 23.75 14.480469 C 24.113281 15.089844 24.296875 15.816406 24.296875 16.660156 C 24.296875 17.527344 24.070312 18.375 23.625 19.195312 C 23.175781 20.019531 22.460938 20.902344 21.476562 21.851562 L 18.519531 24.746094 L 24.46875 24.746094 L 24.46875 26.945312 Z M 33.316406 26.945312 L 33.316406 24.125 L 26.996094 24.125 L 26.996094 20.605469 L 32.460938 12.75 L 35.183594 12.75 L 29.332031 21.246094 L 29.332031 21.988281 L 33.316406 21.988281 L 33.316406 18.777344 L 35.746094 18.777344 L 35.746094 26.945312 Z M 33.316406 26.945312 "/>
<path style="fill:none;stroke-width:24;stroke-linecap:butt;stroke-linejoin:round;stroke:rgb(96.078431%,50.980392%,11.764706%);stroke-opacity:1;stroke-miterlimit:10;" d="M 15.675 79.8 C 15.675 63.0375 29.25 49.4625 46.0125 49.4625 L 161.0625 49.4625 C 177.825 49.4625 191.4 35.8875 191.4 19.125 C 191.4 35.8875 204.975 49.4625 221.7375 49.4625 L 336.7875 49.4625 C 353.55 49.4625 367.125 63.0375 367.125 79.8 " transform="matrix(0.104167,0,0,0.104167,0,0)"/>
</g>
</svg>
